<svg class="svgHero" viewBox="0 0 2560 1440" fill="none" xmlns="http://www.w3.org/2000/svg">
<g id="bg-hero" clip-path="url(#clip0)">
<g id="Vector 1115" filter="url(#filter0_f)">
<path d="M2057.98 976.855C1146.98 951.753 866.415 503.508 549.588 516.267C151.315 532.306 225.523 952.751 549.588 1112.95C931.572 1301.78 2675.34 993.867 2057.98 976.855Z" fill="url(#paint0_linear)" fill-opacity="0.3"/>
</g>
<g id="Vector 1114" filter="url(#filter1_f)">
<path d="M1476.29 573.407C1751.06 662.18 2052.39 873.257 2155.63 865.308C2340.45 851.076 2216.87 362.765 1991.12 224.015C1779.29 93.8176 501.679 169.375 872.949 444.168C1070.47 590.363 1242.46 497.856 1476.29 573.407Z" fill="url(#paint1_linear)" fill-opacity="0.2"/>
</g>
<path class="bg-heroline3" id="bg-heroline3" d="M1267.41 666.294L1267.13 666.71L1267.13 666.71L1267.41 666.294ZM-201.828 404.949C137.424 324.792 379.448 306.724 599.248 350.432C819.05 394.14 1016.68 499.636 1267.13 666.71L1267.68 665.879C1017.2 498.784 819.442 393.199 599.443 349.451C379.442 305.703 137.257 323.804 -202.058 403.976L-201.828 404.949ZM1267.13 666.71C1688.74 947.966 2147.67 1019.85 2660.28 914.971L2660.08 913.991C2147.69 1018.83 1689.05 946.969 1267.68 665.879L1267.13 666.71Z" fill="url(#paint2_linear)"/>
<path class="bg-heroline2" id="bg-heroline2" d="M1280.46 674.69L1280.38 675.183L1280.38 675.183L1280.46 674.69ZM-167.013 1037.71C109.696 825.695 323.115 710.133 541.546 660.032C759.979 609.929 983.476 625.276 1280.38 675.183L1280.54 674.197C983.607 624.284 759.952 608.91 541.322 659.057C322.691 709.204 109.139 824.862 -167.622 1036.91L-167.013 1037.71ZM1280.38 675.183C1780.18 759.197 2228.31 636.915 2653.07 331.374L2652.49 330.562C2227.92 635.966 1780.05 758.161 1280.54 674.197L1280.38 675.183Z" fill="url(#paint3_linear)"/>
<path class="bg-heroline1" id="bg-heroline1" d="M1302.45 761.686L1302.46 762.186L1302.46 762.186L1302.45 761.686ZM-58.4342 1374.01C176.601 1116.57 366.325 965.216 572.515 877.42C778.707 789.623 1001.41 765.36 1302.46 762.186L1302.45 761.186C1001.37 764.36 778.5 788.624 572.123 876.5C365.745 964.377 175.906 1115.84 -59.1727 1373.33L-58.4342 1374.01ZM1302.46 762.186C1809.25 756.842 2228.83 557.531 2593.13 181.945L2592.41 181.248C2228.28 556.667 1808.94 755.846 1302.45 761.186L1302.46 762.186Z" fill="url(#paint4_linear)"/>
<rect id="square7" x="2143.06" y="590" width="16" height="16" rx="8" transform="rotate(22.2604 2143.06 590)" fill="url(#paint5_linear)"/>
<rect id="square6" x="772" y="398.477" width="16" height="16" rx="8" transform="rotate(-20.0179 772 398.477)" fill="url(#paint6_linear)"/>
<rect id="square5" x="1925.5" y="924.506" width="16" height="16" rx="8" transform="rotate(91.8123 1925.5 924.506)" fill="url(#paint7_linear)"/>
</g>
<defs>
<filter id="filter0_f" x="-72" y="166" width="2611" height="1358" filterUnits="userSpaceOnUse" color-interpolation-filters="sRGB">
<feFlood flood-opacity="0" result="BackgroundImageFix"/>
<feBlend mode="normal" in="SourceGraphic" in2="BackgroundImageFix" result="shape"/>
<feGaussianBlur stdDeviation="175" result="effect1_foregroundBlur"/>
</filter>
<filter id="filter1_f" x="487" y="-300" width="2090.73" height="1702.83" filterUnits="userSpaceOnUse" color-interpolation-filters="sRGB">
<feFlood flood-opacity="0" result="BackgroundImageFix"/>
<feBlend mode="normal" in="SourceGraphic" in2="BackgroundImageFix" result="shape"/>
<feGaussianBlur stdDeviation="150" result="effect1_foregroundBlur"/>
</filter>
<linearGradient id="paint0_linear" x1="2189" y1="516" x2="1783.9" y2="1692.51" gradientUnits="userSpaceOnUse">
<stop stop-color="#7346F4"/>
<stop offset="1" stop-color="#538BF0" stop-opacity="0"/>
</linearGradient>
<linearGradient id="paint1_linear" x1="952.771" y1="1102.83" x2="1478.86" y2="-246.785" gradientUnits="userSpaceOnUse">
<stop stop-color="#7346F4"/>
<stop offset="1" stop-color="#538BF0" stop-opacity="0"/>
</linearGradient>
<linearGradient id="paint2_linear" x1="2663.88" y1="893.717" x2="-198.243" y2="383.698" gradientUnits="userSpaceOnUse">
<stop stop-color="#7346F4"/>
<stop offset="1" stop-color="#538BF0" stop-opacity="0"/>
</linearGradient>
<linearGradient id="paint3_linear" x1="2647.66" y1="310.509" x2="-172.442" y2="1016.85" gradientUnits="userSpaceOnUse">
<stop stop-color="#7346F4"/>
<stop offset="1" stop-color="#538BF0" stop-opacity="0"/>
</linearGradient>
<linearGradient id="paint4_linear" x1="2584.12" y1="162.36" x2="-67.4518" y2="1354.43" gradientUnits="userSpaceOnUse">
<stop stop-color="#7346F4"/>
<stop offset="1" stop-color="#538BF0" stop-opacity="0"/>
</linearGradient>
<linearGradient id="paint5_linear" x1="2159.06" y1="590" x2="2143.06" y2="606" gradientUnits="userSpaceOnUse">
<stop stop-color="#7346F4"/>
<stop offset="1" stop-color="#538BF0" stop-opacity="0"/>
</linearGradient>
<linearGradient id="paint6_linear" x1="788" y1="398.477" x2="772" y2="414.477" gradientUnits="userSpaceOnUse">
<stop stop-color="#7346F4"/>
<stop offset="1" stop-color="#538BF0" stop-opacity="0"/>
</linearGradient>
<linearGradient id="paint7_linear" x1="1941.5" y1="924.506" x2="1925.5" y2="940.506" gradientUnits="userSpaceOnUse">
<stop stop-color="#7346F4"/>
<stop offset="1" stop-color="#538BF0" stop-opacity="0"/>
</linearGradient>
<clipPath id="clip0">
<rect width="2560" height="1440" fill="white"/>
</clipPath>
</defs>
</svg>
